<?xml version="1.0" encoding="UTF-8" ?>
<!DOCTYPE svg PUBLIC "-//W3C//DTD SVG 1.1//EN" "http://www.w3.org/Graphics/SVG/1.1/DTD/svg11.dtd">
<svg width="736pt" height="103pt" viewBox="0 0 736 103" version="1.1" xmlns="http://www.w3.org/2000/svg">
<g id="#ea4335ff">
<path fill="#ea4335" opacity="1.00" d=" M 65.73 6.81 C 71.32 3.46 78.90 3.76 84.02 7.87 C 89.62 11.96 91.65 20.15 88.54 26.36 C 87.12 29.48 84.52 31.90 81.56 33.55 C 71.13 39.47 60.68 45.34 50.21 51.18 C 42.21 46.73 34.27 42.17 26.25 37.76 C 22.07 35.29 16.95 35.33 12.45 36.82 C 30.21 26.82 47.96 16.80 65.73 6.81 Z" />
</g>
<g id="#0f9d58ff">
<path fill="#0f9d58" opacity="1.00" d=" M 118.13 9.11 C 123.28 3.90 131.91 3.09 138.09 6.92 C 156.20 17.12 174.31 27.32 192.41 37.53 C 197.35 40.10 200.95 45.33 200.83 50.99 C 201.16 57.41 196.73 63.27 190.94 65.67 C 186.00 67.45 180.52 66.60 176.08 63.94 C 168.52 59.70 160.99 55.39 153.42 51.17 C 142.45 44.93 131.33 38.93 120.45 32.53 C 112.50 27.70 111.39 15.43 118.13 9.11 Z" />
</g>
<g id="#0000008a">
<path fill="#000000" opacity="0.54" d=" M 273.42 15.61 C 285.05 13.61 298.07 16.51 306.31 25.36 C 304.18 27.49 302.05 29.61 299.90 31.71 C 290.25 21.10 271.92 20.84 261.72 30.80 C 253.66 38.19 251.55 50.37 254.57 60.59 C 257.33 69.80 265.48 77.15 274.96 78.85 C 282.79 80.20 291.48 78.87 297.69 73.62 C 302.65 69.70 305.19 63.56 305.98 57.42 C 297.47 57.36 288.97 57.43 280.46 57.39 C 280.45 54.58 280.45 51.77 280.48 48.96 C 291.83 49.00 303.19 48.81 314.54 49.07 C 315.80 59.05 313.67 70.05 306.36 77.38 C 296.54 88.12 279.86 90.43 266.63 85.38 C 257.19 81.57 249.49 73.57 246.08 63.97 C 243.38 55.97 243.37 47.08 246.04 39.06 C 250.16 27.17 260.97 17.74 273.42 15.61 Z" />
<path fill="#000000" opacity="0.54" d=" M 419.46 15.59 C 431.06 13.63 443.99 16.54 452.24 25.31 C 450.15 27.48 448.01 29.62 445.86 31.73 C 436.23 21.15 417.97 20.82 407.76 30.72 C 399.48 38.24 397.37 50.78 400.69 61.15 C 403.70 70.44 412.24 77.70 421.95 79.02 C 429.68 80.11 438.16 78.54 444.11 73.20 C 448.83 69.31 451.11 63.34 451.92 57.42 C 443.41 57.36 434.90 57.43 426.38 57.39 C 426.37 54.58 426.37 51.77 426.40 48.96 C 437.72 48.94 449.05 48.95 460.37 48.96 C 461.92 59.15 459.47 70.47 451.86 77.82 C 442.38 87.87 426.79 90.12 414.03 85.92 C 402.17 81.78 392.76 71.02 390.63 58.58 C 389.32 50.56 390.09 42.02 393.83 34.71 C 398.86 24.90 408.53 17.42 419.46 15.59 Z" />
<path fill="#000000" opacity="0.54" d=" M 617.19 16.20 C 621.55 14.16 626.90 18.37 625.99 23.06 C 625.42 27.64 619.35 30.16 615.79 27.12 C 611.97 24.41 612.84 17.88 617.19 16.20 Z" />
<path fill="#000000" opacity="0.54" d=" M 674.17 16.22 C 678.15 14.35 683.22 17.64 683.06 22.04 C 683.35 26.82 677.32 30.23 673.38 27.50 C 669.02 25.12 669.59 18.02 674.17 16.22 Z" />
<path fill="#000000" opacity="0.54" d=" M 325.85 16.52 C 335.54 16.71 345.31 15.93 354.96 17.15 C 366.79 18.86 377.45 27.52 380.92 39.06 C 384.82 51.83 382.85 67.32 372.91 76.91 C 366.69 83.25 357.73 86.17 348.99 86.37 C 341.28 86.46 333.56 86.38 325.85 86.38 C 325.82 63.09 325.83 39.81 325.85 16.52 M 334.87 25.13 C 334.85 42.69 334.85 60.26 334.87 77.83 C 341.85 77.69 348.97 78.43 355.82 76.73 C 362.23 75.17 367.97 70.77 370.83 64.78 C 373.87 58.38 374.13 50.94 372.83 44.06 C 371.48 37.09 366.85 30.77 360.32 27.83 C 352.39 23.99 343.37 25.36 334.87 25.13 Z" />
<path fill="#000000" opacity="0.54" d=" M 514.85 16.51 C 517.84 16.49 520.82 16.49 523.81 16.52 C 523.84 36.95 523.80 57.39 523.83 77.83 C 533.93 77.87 544.04 77.81 554.14 77.86 C 554.15 80.70 554.15 83.54 554.14 86.38 C 541.05 86.41 527.95 86.41 514.86 86.39 C 514.83 63.09 514.83 39.80 514.85 16.51 Z" />
<path fill="#000000" opacity="0.54" d=" M 568.12 42.14 C 576.54 35.07 590.27 35.23 598.49 42.53 C 604.55 47.87 606.31 56.34 606.20 64.08 C 593.57 64.14 580.93 64.06 568.29 64.12 C 568.28 72.88 576.25 80.66 585.08 79.70 C 590.52 79.47 594.72 75.53 597.50 71.18 C 600.14 72.46 602.79 73.76 605.41 75.08 C 602.40 80.31 597.73 84.73 591.90 86.57 C 584.05 89.14 574.74 88.14 568.27 82.75 C 556.15 72.99 556.21 52.04 568.12 42.14 M 573.10 49.16 C 570.96 51.19 569.95 54.02 568.98 56.72 C 578.24 56.77 587.49 56.79 596.75 56.71 C 596.03 53.70 595.10 50.51 592.58 48.50 C 587.13 44.05 578.10 43.93 573.10 49.16 Z" />
<path fill="#000000" opacity="0.54" d=" M 644.51 46.63 C 648.21 38.99 657.60 35.20 665.59 38.13 C 664.73 41.06 663.83 43.96 662.89 46.86 C 658.80 46.36 654.18 45.89 650.74 48.66 C 646.49 51.62 644.58 56.93 644.92 61.98 C 644.92 70.12 644.95 78.25 644.92 86.39 C 641.91 86.41 638.90 86.40 635.90 86.38 C 635.88 70.47 635.87 54.55 635.90 38.64 C 638.77 38.62 641.64 38.62 644.51 38.62 C 644.54 41.29 644.53 43.96 644.51 46.63 Z" />
<path fill="#000000" opacity="0.54" d=" M 691.20 46.31 C 694.60 41.81 699.54 38.42 705.17 37.51 C 712.72 36.24 721.44 37.25 727.03 42.99 C 730.71 46.63 732.22 51.92 732.16 57.01 C 732.17 66.80 732.16 76.59 732.15 86.38 C 729.29 86.40 726.44 86.40 723.60 86.39 C 723.57 84.10 723.56 81.81 723.57 79.53 C 720.98 82.63 718.12 85.80 714.13 87.02 C 706.74 89.33 697.81 87.24 692.92 81.03 C 689.65 77.04 688.97 71.37 690.48 66.53 C 692.08 61.59 696.59 58.14 701.41 56.62 C 708.73 54.46 716.74 55.17 723.73 58.18 C 723.68 54.05 722.44 49.60 718.64 47.39 C 712.42 42.90 703.45 45.22 699.09 51.19 C 696.43 49.61 693.80 47.98 691.20 46.31 M 705.64 63.67 C 702.12 64.92 698.78 68.05 699.06 72.06 C 699.25 76.96 704.51 80.03 709.01 79.91 C 716.59 79.91 723.31 73.41 723.75 65.86 C 718.41 62.53 711.60 61.63 705.64 63.67 Z" />
<path fill="#000000" opacity="0.54" d=" M 615.16 38.64 C 618.15 38.62 621.14 38.62 624.15 38.64 C 624.17 54.55 624.17 70.47 624.15 86.38 C 621.15 86.40 618.15 86.41 615.16 86.39 C 615.14 70.47 615.15 54.55 615.16 38.64 Z" />
<path fill="#000000" opacity="0.54" d=" M 672.17 38.64 C 675.18 38.61 678.19 38.62 681.20 38.64 C 681.23 54.56 681.23 70.47 681.20 86.38 C 678.19 86.41 675.17 86.41 672.16 86.38 C 672.16 70.47 672.15 54.55 672.17 38.64 Z" />
</g>
<g id="#4285f4ff">
<path fill="#4285f4" opacity="1.00" d=" M 12.45 36.82 C 16.95 35.33 22.07 35.29 26.25 37.76 C 34.27 42.17 42.21 46.73 50.21 51.18 C 60.97 57.29 71.80 63.27 82.54 69.43 C 89.26 73.23 92.01 82.49 88.33 89.30 C 84.60 96.95 74.32 100.21 66.87 96.06 C 48.03 85.63 29.30 74.99 10.52 64.45 C 4.32 61.06 1.11 53.08 3.49 46.39 C 4.88 42.05 8.37 38.68 12.45 36.82 Z" />
</g>
<g id="#fbbc04ff">
<path fill="#fbbc04" opacity="1.00" d=" M 153.42 51.17 C 160.99 55.39 168.52 59.70 176.08 63.94 C 180.52 66.60 186.00 67.45 190.94 65.67 C 173.20 75.64 155.47 85.63 137.71 95.58 C 132.95 98.32 126.79 98.78 121.94 96.01 C 116.84 93.39 113.32 87.79 113.64 82.01 C 113.68 76.50 117.14 71.42 121.95 68.88 C 132.45 62.99 142.93 57.08 153.42 51.17 Z" />
</g>
</svg>
