<?xml version="1.0" standalone="no"?>
<!DOCTYPE svg PUBLIC "-//W3C//DTD SVG 20010904//EN"
 "http://www.w3.org/TR/2001/REC-SVG-20010904/DTD/svg10.dtd">
<svg version="1.0" xmlns="http://www.w3.org/2000/svg"
 width="384.000000pt" height="384.000000pt" viewBox="0 0 384.000000 384.000000"
 preserveAspectRatio="xMidYMid meet">
<metadata>
Created by potrace 1.11, written by Peter Selinger 2001-2013
</metadata>
<g transform="translate(0.000000,384.000000) scale(0.100000,-0.100000)"
fill="#000000" stroke="none">
<path d="M1322 2770 c-12 -5 -257 -145 -545 -310 -574 -331 -602 -351 -632
-452 -32 -110 -11 -210 63 -287 38 -41 146 -107 582 -358 l535 -308 95 0 c108
0 150 15 210 75 52 52 74 104 78 187 5 94 -17 161 -72 217 -27 28 -139 99
-333 210 -161 92 -293 169 -293 171 0 2 132 79 293 171 319 183 363 217 392
304 22 66 17 179 -10 235 -25 50 -80 105 -130 130 -45 22 -194 32 -233 15z"/>
<path d="M2295 2756 c-95 -44 -165 -154 -165 -260 0 -23 7 -66 16 -95 27 -92
81 -135 406 -321 158 -91 286 -165 285 -166 -1 -1 -132 -77 -292 -168 -224
-129 -301 -178 -337 -217 -132 -139 -87 -374 87 -455 70 -33 180 -33 250 0 28
13 277 155 555 315 368 212 515 302 542 332 45 50 68 114 68 194 0 80 -23 144
-68 194 -27 30 -174 120 -542 332 -278 160 -527 302 -555 315 -70 33 -180 33
-250 0z"/>
</g>
</svg>
